<mxfile host="65bd71144e">
    <diagram name="Page-1" id="c7558073-3199-34d8-9f00-42111426c3f3">
        <mxGraphModel dx="1650" dy="1873" grid="1" gridSize="10" guides="1" tooltips="1" connect="1" arrows="1" fold="1" page="1" pageScale="1" pageWidth="826" pageHeight="1169" background="none" math="0" shadow="0">
            <root>
                <mxCell id="0"/>
                <mxCell id="1" parent="0"/>
                <mxCell id="Gl9r3KL6Nqyn_8aF0VKn-128" value="MCP" style="rounded=0;whiteSpace=wrap;html=1;labelPosition=left;verticalLabelPosition=middle;align=right;verticalAlign=middle;textShadow=0;fontSize=30;fontStyle=1;fillColor=#F1F5FC;strokeColor=#6c8ebf;" parent="1" vertex="1">
                    <mxGeometry x="80" y="-1140" width="690.5" height="370" as="geometry"/>
                </mxCell>
                <mxCell id="Gl9r3KL6Nqyn_8aF0VKn-96" value="RAG" style="rounded=0;whiteSpace=wrap;html=1;labelPosition=left;verticalLabelPosition=middle;align=right;verticalAlign=middle;textShadow=0;fontSize=30;fontStyle=1;fillColor=#D5E8D4;strokeColor=#82b366;" parent="1" vertex="1">
                    <mxGeometry x="80" y="-620" width="690.5" height="420" as="geometry"/>
                </mxCell>
                <mxCell id="Gl9r3KL6Nqyn_8aF0VKn-103" style="edgeStyle=orthogonalEdgeStyle;rounded=0;orthogonalLoop=1;jettySize=auto;html=1;entryX=0.5;entryY=0;entryDx=0;entryDy=0;" parent="1" source="5" target="Gl9r3KL6Nqyn_8aF0VKn-98" edge="1">
                    <mxGeometry relative="1" as="geometry"/>
                </mxCell>
                <mxCell id="Gl9r3KL6Nqyn_8aF0VKn-135" style="edgeStyle=orthogonalEdgeStyle;rounded=0;orthogonalLoop=1;jettySize=auto;html=1;entryX=0.5;entryY=1;entryDx=0;entryDy=0;" parent="1" source="5" target="Gl9r3KL6Nqyn_8aF0VKn-134" edge="1">
                    <mxGeometry relative="1" as="geometry"/>
                </mxCell>
                <mxCell id="Gl9r3KL6Nqyn_8aF0VKn-152" style="edgeStyle=orthogonalEdgeStyle;rounded=0;orthogonalLoop=1;jettySize=auto;html=1;exitX=0.5;exitY=0;exitDx=0;exitDy=0;entryX=0.5;entryY=1;entryDx=0;entryDy=0;" parent="1" source="5" target="Gl9r3KL6Nqyn_8aF0VKn-144" edge="1">
                    <mxGeometry relative="1" as="geometry"/>
                </mxCell>
                <mxCell id="Gl9r3KL6Nqyn_8aF0VKn-153" style="edgeStyle=orthogonalEdgeStyle;rounded=0;orthogonalLoop=1;jettySize=auto;html=1;exitX=0.5;exitY=0;exitDx=0;exitDy=0;entryX=0.5;entryY=1;entryDx=0;entryDy=0;" parent="1" source="5" target="Gl9r3KL6Nqyn_8aF0VKn-147" edge="1">
                    <mxGeometry relative="1" as="geometry"/>
                </mxCell>
                <mxCell id="Gl9r3KL6Nqyn_8aF0VKn-154" style="edgeStyle=orthogonalEdgeStyle;rounded=0;orthogonalLoop=1;jettySize=auto;html=1;exitX=0.5;exitY=0;exitDx=0;exitDy=0;" parent="1" source="5" target="Gl9r3KL6Nqyn_8aF0VKn-150" edge="1">
                    <mxGeometry relative="1" as="geometry"/>
                </mxCell>
                <mxCell id="5" value="AI-CHATBOT" style="shape=process;whiteSpace=wrap;align=center;verticalAlign=middle;size=0.0475;fontStyle=1;strokeWidth=3;fillColor=#FFCCCC;fontSize=20;" parent="1" vertex="1">
                    <mxGeometry x="200.99999999999991" y="-719" width="400" height="50" as="geometry"/>
                </mxCell>
                <mxCell id="Gl9r3KL6Nqyn_8aF0VKn-109" value="" style="edgeStyle=orthogonalEdgeStyle;rounded=0;orthogonalLoop=1;jettySize=auto;html=1;entryX=0.5;entryY=0;entryDx=0;entryDy=0;" parent="1" source="Gl9r3KL6Nqyn_8aF0VKn-98" target="Gl9r3KL6Nqyn_8aF0VKn-110" edge="1">
                    <mxGeometry relative="1" as="geometry">
                        <mxPoint x="371" y="-485" as="targetPoint"/>
                    </mxGeometry>
                </mxCell>
                <mxCell id="Gl9r3KL6Nqyn_8aF0VKn-113" value="Store message in history&lt;div&gt;(plain text)&lt;/div&gt;" style="edgeLabel;html=1;align=center;verticalAlign=middle;resizable=0;points=[];" parent="Gl9r3KL6Nqyn_8aF0VKn-109" vertex="1" connectable="0">
                    <mxGeometry x="-0.1795" y="2" relative="1" as="geometry">
                        <mxPoint as="offset"/>
                    </mxGeometry>
                </mxCell>
                <mxCell id="Gl9r3KL6Nqyn_8aF0VKn-118" style="edgeStyle=orthogonalEdgeStyle;rounded=0;orthogonalLoop=1;jettySize=auto;html=1;entryX=0.5;entryY=0;entryDx=0;entryDy=0;" parent="1" source="Gl9r3KL6Nqyn_8aF0VKn-98" target="Gl9r3KL6Nqyn_8aF0VKn-114" edge="1">
                    <mxGeometry relative="1" as="geometry"/>
                </mxCell>
                <mxCell id="Gl9r3KL6Nqyn_8aF0VKn-133" value="Find in vector db" style="edgeLabel;html=1;align=center;verticalAlign=middle;resizable=0;points=[];" parent="Gl9r3KL6Nqyn_8aF0VKn-118" vertex="1" connectable="0">
                    <mxGeometry x="-0.26" y="1" relative="1" as="geometry">
                        <mxPoint as="offset"/>
                    </mxGeometry>
                </mxCell>
                <mxCell id="Gl9r3KL6Nqyn_8aF0VKn-98" value="&lt;p style=&quot;margin: 0px; margin-top: 4px; text-align: center; text-decoration: underline;&quot;&gt;Memory&lt;/p&gt;" style="verticalAlign=middle;align=center;overflow=fill;fontSize=14;fontFamily=Helvetica;html=1;rounded=1;fontStyle=1;strokeWidth=3;fillColor=#E6FFCC" parent="1" vertex="1">
                    <mxGeometry x="346" y="-600" width="110" height="90" as="geometry"/>
                </mxCell>
                <mxCell id="Gl9r3KL6Nqyn_8aF0VKn-112" style="edgeStyle=orthogonalEdgeStyle;rounded=0;orthogonalLoop=1;jettySize=auto;html=1;" parent="1" source="Gl9r3KL6Nqyn_8aF0VKn-110" target="Gl9r3KL6Nqyn_8aF0VKn-111" edge="1">
                    <mxGeometry relative="1" as="geometry"/>
                </mxCell>
                <mxCell id="Gl9r3KL6Nqyn_8aF0VKn-120" value="Store in plain text" style="edgeLabel;html=1;align=center;verticalAlign=middle;resizable=0;points=[];" parent="Gl9r3KL6Nqyn_8aF0VKn-112" vertex="1" connectable="0">
                    <mxGeometry x="-0.1385" y="2" relative="1" as="geometry">
                        <mxPoint as="offset"/>
                    </mxGeometry>
                </mxCell>
                <mxCell id="Gl9r3KL6Nqyn_8aF0VKn-122" value="Store in vector db" style="edgeStyle=orthogonalEdgeStyle;rounded=0;orthogonalLoop=1;jettySize=auto;html=1;entryX=0;entryY=0.5;entryDx=0;entryDy=0;" parent="1" source="Gl9r3KL6Nqyn_8aF0VKn-110" target="Gl9r3KL6Nqyn_8aF0VKn-114" edge="1">
                    <mxGeometry relative="1" as="geometry">
                        <Array as="points">
                            <mxPoint x="240" y="-495"/>
                            <mxPoint x="240" y="-380"/>
                        </Array>
                    </mxGeometry>
                </mxCell>
                <mxCell id="Gl9r3KL6Nqyn_8aF0VKn-110" value="Chat history" style="whiteSpace=wrap;align=center;verticalAlign=middle;fontStyle=1;strokeWidth=3;fillColor=#FFFFCC" parent="1" vertex="1">
                    <mxGeometry x="126" y="-525" width="90" height="60" as="geometry"/>
                </mxCell>
                <mxCell id="Gl9r3KL6Nqyn_8aF0VKn-111" value="MongoDB" style="shape=cylinder3;whiteSpace=wrap;html=1;boundedLbl=1;backgroundOutline=1;size=15;" parent="1" vertex="1">
                    <mxGeometry x="141" y="-400" width="60" height="80" as="geometry"/>
                </mxCell>
                <mxCell id="Gl9r3KL6Nqyn_8aF0VKn-114" value="Semantic Search" style="whiteSpace=wrap;align=center;verticalAlign=middle;fontStyle=1;strokeWidth=3;fillColor=#FFFFCC" parent="1" vertex="1">
                    <mxGeometry x="356" y="-410" width="90" height="60" as="geometry"/>
                </mxCell>
                <mxCell id="Gl9r3KL6Nqyn_8aF0VKn-138" style="edgeStyle=orthogonalEdgeStyle;rounded=0;orthogonalLoop=1;jettySize=auto;html=1;entryX=1;entryY=0.5;entryDx=0;entryDy=0;" parent="1" source="Gl9r3KL6Nqyn_8aF0VKn-115" target="Gl9r3KL6Nqyn_8aF0VKn-114" edge="1">
                    <mxGeometry relative="1" as="geometry"/>
                </mxCell>
                <mxCell id="Gl9r3KL6Nqyn_8aF0VKn-115" value="Knowledge&#xa;(docs)" style="whiteSpace=wrap;align=center;verticalAlign=middle;fontStyle=1;strokeWidth=3;fillColor=#FFFFCC" parent="1" vertex="1">
                    <mxGeometry x="585" y="-530" width="90" height="60" as="geometry"/>
                </mxCell>
                <mxCell id="Gl9r3KL6Nqyn_8aF0VKn-116" value="ChromaDB" style="shape=cylinder3;whiteSpace=wrap;html=1;boundedLbl=1;backgroundOutline=1;size=15;" parent="1" vertex="1">
                    <mxGeometry x="371" y="-320" width="60" height="80" as="geometry"/>
                </mxCell>
                <mxCell id="Gl9r3KL6Nqyn_8aF0VKn-123" style="edgeStyle=orthogonalEdgeStyle;rounded=0;orthogonalLoop=1;jettySize=auto;html=1;dashed=1;" parent="1" source="Gl9r3KL6Nqyn_8aF0VKn-121" edge="1">
                    <mxGeometry relative="1" as="geometry">
                        <mxPoint x="291" y="-380" as="targetPoint"/>
                    </mxGeometry>
                </mxCell>
                <mxCell id="Gl9r3KL6Nqyn_8aF0VKn-131" style="edgeStyle=orthogonalEdgeStyle;rounded=0;orthogonalLoop=1;jettySize=auto;html=1;dashed=1;" parent="1" source="Gl9r3KL6Nqyn_8aF0VKn-121" edge="1">
                    <mxGeometry relative="1" as="geometry">
                        <mxPoint x="400" y="-450" as="targetPoint"/>
                    </mxGeometry>
                </mxCell>
                <mxCell id="Gl9r3KL6Nqyn_8aF0VKn-121" value="Embeddings" style="whiteSpace=wrap;align=center;verticalAlign=middle;fontStyle=1;strokeWidth=3;fillColor=#e1d5e7;strokeColor=#9673a6;" parent="1" vertex="1">
                    <mxGeometry x="256" y="-480" width="90" height="60" as="geometry"/>
                </mxCell>
                <mxCell id="Gl9r3KL6Nqyn_8aF0VKn-124" style="edgeStyle=orthogonalEdgeStyle;rounded=0;orthogonalLoop=1;jettySize=auto;html=1;entryX=0.5;entryY=0;entryDx=0;entryDy=0;entryPerimeter=0;" parent="1" source="Gl9r3KL6Nqyn_8aF0VKn-114" target="Gl9r3KL6Nqyn_8aF0VKn-116" edge="1">
                    <mxGeometry relative="1" as="geometry"/>
                </mxCell>
                <mxCell id="Gl9r3KL6Nqyn_8aF0VKn-126" style="edgeStyle=orthogonalEdgeStyle;rounded=0;orthogonalLoop=1;jettySize=auto;html=1;entryX=0.5;entryY=0;entryDx=0;entryDy=0;" parent="1" source="Gl9r3KL6Nqyn_8aF0VKn-125" target="Gl9r3KL6Nqyn_8aF0VKn-115" edge="1">
                    <mxGeometry relative="1" as="geometry"/>
                </mxCell>
                <mxCell id="Gl9r3KL6Nqyn_8aF0VKn-127" value="Provides facts" style="edgeLabel;html=1;align=center;verticalAlign=middle;resizable=0;points=[];" parent="Gl9r3KL6Nqyn_8aF0VKn-126" vertex="1" connectable="0">
                    <mxGeometry x="-0.0364" y="1" relative="1" as="geometry">
                        <mxPoint as="offset"/>
                    </mxGeometry>
                </mxCell>
                <mxCell id="Gl9r3KL6Nqyn_8aF0VKn-125" value="Admin" style="shape=umlActor;verticalLabelPosition=bottom;verticalAlign=top;html=1;outlineConnect=0;" parent="1" vertex="1">
                    <mxGeometry x="710" y="-590" width="30" height="60" as="geometry"/>
                </mxCell>
                <mxCell id="Gl9r3KL6Nqyn_8aF0VKn-141" style="edgeStyle=orthogonalEdgeStyle;rounded=0;orthogonalLoop=1;jettySize=auto;html=1;exitX=0.5;exitY=0;exitDx=0;exitDy=0;entryX=0.5;entryY=1;entryDx=0;entryDy=0;" parent="1" source="Gl9r3KL6Nqyn_8aF0VKn-134" target="Gl9r3KL6Nqyn_8aF0VKn-140" edge="1">
                    <mxGeometry relative="1" as="geometry"/>
                </mxCell>
                <mxCell id="Gl9r3KL6Nqyn_8aF0VKn-134" value="&lt;p style=&quot;margin: 4px 0px 0px; text-decoration: underline;&quot;&gt;MCP&lt;/p&gt;&lt;p style=&quot;margin: 4px 0px 0px; text-decoration: underline;&quot;&gt;Server&lt;/p&gt;" style="verticalAlign=middle;align=center;overflow=fill;fontSize=13;fontFamily=Helvetica;html=1;rounded=1;fontStyle=1;strokeWidth=3;fillColor=#dae8fc;strokeColor=#6c8ebf;spacing=0;" parent="1" vertex="1">
                    <mxGeometry x="126" y="-964" width="110" height="90" as="geometry"/>
                </mxCell>
                <mxCell id="Gl9r3KL6Nqyn_8aF0VKn-140" value="Google&#xa;Web Search" style="whiteSpace=wrap;align=center;verticalAlign=middle;fontStyle=1;strokeWidth=3;fillColor=#FFFFCC" parent="1" vertex="1">
                    <mxGeometry x="136" y="-1084" width="90" height="60" as="geometry"/>
                </mxCell>
                <mxCell id="Gl9r3KL6Nqyn_8aF0VKn-143" style="edgeStyle=orthogonalEdgeStyle;rounded=0;orthogonalLoop=1;jettySize=auto;html=1;exitX=0.5;exitY=0;exitDx=0;exitDy=0;entryX=0.5;entryY=1;entryDx=0;entryDy=0;" parent="1" source="Gl9r3KL6Nqyn_8aF0VKn-144" target="Gl9r3KL6Nqyn_8aF0VKn-145" edge="1">
                    <mxGeometry relative="1" as="geometry"/>
                </mxCell>
                <mxCell id="Gl9r3KL6Nqyn_8aF0VKn-144" value="&lt;p style=&quot;margin: 4px 0px 0px; text-decoration: underline;&quot;&gt;MCP&lt;/p&gt;&lt;p style=&quot;margin: 4px 0px 0px; text-decoration: underline;&quot;&gt;Server&lt;/p&gt;" style="verticalAlign=middle;align=center;overflow=fill;fontSize=13;fontFamily=Helvetica;html=1;rounded=1;fontStyle=1;strokeWidth=3;fillColor=#dae8fc;strokeColor=#6c8ebf;spacing=0;" parent="1" vertex="1">
                    <mxGeometry x="280" y="-964" width="110" height="90" as="geometry"/>
                </mxCell>
                <mxCell id="Gl9r3KL6Nqyn_8aF0VKn-145" value="Google&#xa;Calendar" style="whiteSpace=wrap;align=center;verticalAlign=middle;fontStyle=1;strokeWidth=3;fillColor=#FFFFCC" parent="1" vertex="1">
                    <mxGeometry x="290" y="-1084" width="90" height="60" as="geometry"/>
                </mxCell>
                <mxCell id="Gl9r3KL6Nqyn_8aF0VKn-146" style="edgeStyle=orthogonalEdgeStyle;rounded=0;orthogonalLoop=1;jettySize=auto;html=1;exitX=0.5;exitY=0;exitDx=0;exitDy=0;entryX=0.5;entryY=1;entryDx=0;entryDy=0;" parent="1" source="Gl9r3KL6Nqyn_8aF0VKn-147" target="Gl9r3KL6Nqyn_8aF0VKn-148" edge="1">
                    <mxGeometry relative="1" as="geometry"/>
                </mxCell>
                <mxCell id="Gl9r3KL6Nqyn_8aF0VKn-147" value="&lt;p style=&quot;margin: 4px 0px 0px; text-decoration: underline;&quot;&gt;MCP&lt;/p&gt;&lt;p style=&quot;margin: 4px 0px 0px; text-decoration: underline;&quot;&gt;Server&lt;/p&gt;" style="verticalAlign=middle;align=center;overflow=fill;fontSize=13;fontFamily=Helvetica;html=1;rounded=1;fontStyle=1;strokeWidth=3;fillColor=#dae8fc;strokeColor=#6c8ebf;spacing=0;" parent="1" vertex="1">
                    <mxGeometry x="446" y="-964" width="110" height="90" as="geometry"/>
                </mxCell>
                <mxCell id="Gl9r3KL6Nqyn_8aF0VKn-148" value="Language&#xa;Translator" style="whiteSpace=wrap;align=center;verticalAlign=middle;fontStyle=1;strokeWidth=3;fillColor=#FFFFCC" parent="1" vertex="1">
                    <mxGeometry x="456" y="-1084" width="90" height="60" as="geometry"/>
                </mxCell>
                <mxCell id="Gl9r3KL6Nqyn_8aF0VKn-149" style="edgeStyle=orthogonalEdgeStyle;rounded=0;orthogonalLoop=1;jettySize=auto;html=1;exitX=0.5;exitY=0;exitDx=0;exitDy=0;entryX=0.5;entryY=1;entryDx=0;entryDy=0;" parent="1" source="Gl9r3KL6Nqyn_8aF0VKn-150" target="Gl9r3KL6Nqyn_8aF0VKn-151" edge="1">
                    <mxGeometry relative="1" as="geometry"/>
                </mxCell>
                <mxCell id="Gl9r3KL6Nqyn_8aF0VKn-150" value="&lt;p style=&quot;margin: 4px 0px 0px; text-decoration: underline;&quot;&gt;MCP&lt;/p&gt;&lt;p style=&quot;margin: 4px 0px 0px; text-decoration: underline;&quot;&gt;Server&lt;/p&gt;" style="verticalAlign=middle;align=center;overflow=fill;fontSize=13;fontFamily=Helvetica;html=1;rounded=1;fontStyle=1;strokeWidth=3;fillColor=#dae8fc;strokeColor=#6c8ebf;spacing=0;" parent="1" vertex="1">
                    <mxGeometry x="610" y="-964" width="110" height="90" as="geometry"/>
                </mxCell>
                <mxCell id="Gl9r3KL6Nqyn_8aF0VKn-151" value="Google&#xa;Web Search" style="whiteSpace=wrap;align=center;verticalAlign=middle;fontStyle=1;strokeWidth=3;fillColor=#FFFFCC" parent="1" vertex="1">
                    <mxGeometry x="620" y="-1084" width="90" height="60" as="geometry"/>
                </mxCell>
            </root>
        </mxGraphModel>
    </diagram>
</mxfile>